<svg xmlns="http://www.w3.org/2000/svg" viewBox="0 0 100 100" width="100" height="100" role="img" aria-label="Daily AI Employee - Robot">
  <title>Daily AI Employee - Robot</title>
  <g fill="none" stroke="#ffffff" stroke-width="5.5" stroke-linecap="round" stroke-linejoin="round">

    <rect x="20" y="28" width="60" height="48" rx="14"/>
    <path d="M50 28V17"/>
    <circle cx="50" cy="14" r="6"/>
    <path d="M20 50H12a6 6 0 0 0-6 6v10a6 6 0 0 0 6 6h8"/>
    <path d="M80 50h8a6 6 0 0 1 6 6v10a6 6 0 0 1-6 6h-8"/>
    <circle cx="38" cy="52" r="5"/>
    <circle cx="62" cy="52" r="5"/>
    <path d="M40 66c6 6 14 6 20 0"/>

  </g>
</svg>
