<svg xmlns="http://www.w3.org/2000/svg" viewBox="0 0 100 100" width="100" height="100" role="img" aria-label="Messages and Support - Chat Question">
  <title>Messages and Support - Chat Question</title>
  <g fill="none" stroke="#ffffff" stroke-width="5.5" stroke-linecap="round" stroke-linejoin="round">

    <path d="M15 22h58a12 12 0 0 1 12 12v25a12 12 0 0 1-12 12H42L25 85V71H15a12 12 0 0 1-12-12V34a12 12 0 0 1 12-12z"/>
    <circle cx="31" cy="47" r="2.5"/>
    <circle cx="44" cy="47" r="2.5"/>
    <circle cx="57" cy="47" r="2.5"/>
    <circle cx="78" cy="74" r="16"/>
    <path d="M73 68a6 6 0 1 1 8 6c-3 1-3 4-3 4"/>
    <path d="M78 84h.1"/>

  </g>
</svg>
