<svg xmlns="http://www.w3.org/2000/svg" width="900" height="520" viewBox="0 0 900 520">
<rect width="100%" height="100%" fill="#0a0b0c"/>
<g transform="translate(40,40) scale(1.6)"><path d="M10 30 L32 12 L54 30" stroke="#FFFFFF" stroke-width="4" stroke-linecap="round" stroke-linejoin="round" fill="none"/>
  <path d="M16 28 V52 H26 V40 H38 V52 H48 V28" stroke="#FFFFFF" stroke-width="4" stroke-linecap="round" stroke-linejoin="round" fill="none"/></g>
<text x="90" y="175" font-family="Arial, sans-serif" font-size="16" fill="#FFFFFF" text-anchor="middle">dashboard</text>
<g transform="translate(210,40) scale(1.6)"><path d="M10 52 H54" stroke="#FFFFFF" stroke-width="4" stroke-linecap="round" stroke-linejoin="round" fill="none"/>
  <rect x="14" y="34" width="8" height="18" rx="2" stroke="#FFFFFF" stroke-width="4" stroke-linecap="round" stroke-linejoin="round" fill="none"/>
  <rect x="28" y="24" width="8" height="28" rx="2" stroke="#FFFFFF" stroke-width="4" stroke-linecap="round" stroke-linejoin="round" fill="none"/>
  <rect x="42" y="14" width="8" height="38" rx="2" stroke="#FFFFFF" stroke-width="4" stroke-linecap="round" stroke-linejoin="round" fill="none"/></g>
<text x="260" y="175" font-family="Arial, sans-serif" font-size="16" fill="#FFFFFF" text-anchor="middle">my_investments</text>
<g transform="translate(380,40) scale(1.6)"><path d="M16 28 H24 L30 20 H34 L40 28 H48" stroke="#FFFFFF" stroke-width="4" stroke-linecap="round" stroke-linejoin="round" fill="none"/>
  <path d="M14 28 H50 V46 H14 Z" stroke="#FFFFFF" stroke-width="4" stroke-linecap="round" stroke-linejoin="round" fill="none"/>
  <path d="M32 10 V34" stroke="#FFFFFF" stroke-width="4" stroke-linecap="round" stroke-linejoin="round" fill="none"/>
  <path d="M24 26 L32 34 L40 26" stroke="#FFFFFF" stroke-width="4" stroke-linecap="round" stroke-linejoin="round" fill="none"/></g>
<text x="430" y="175" font-family="Arial, sans-serif" font-size="16" fill="#FFFFFF" text-anchor="middle">capital_calls</text>
<g transform="translate(550,40) scale(1.6)"><circle cx="24" cy="24" r="14" stroke="#FFFFFF" stroke-width="4" stroke-linecap="round" stroke-linejoin="round" fill="none"/>
  <path d="M24 16 V32" stroke="#FFFFFF" stroke-width="4" stroke-linecap="round" stroke-linejoin="round" fill="none"/>
  <path d="M29 18 C27 16,21 16,19 19 C17 22,20 24,24 24 C28 24,31 26,29 29 C27 32,21 32,19 30" stroke="#FFFFFF" stroke-width="4" stroke-linecap="round" stroke-linejoin="round" fill="none"/>
  <path d="M18 42 L28 32 L36 40 L52 24" stroke="#FFFFFF" stroke-width="4" stroke-linecap="round" stroke-linejoin="round" fill="none"/>
  <path d="M44 24 H52 V32" stroke="#FFFFFF" stroke-width="4" stroke-linecap="round" stroke-linejoin="round" fill="none"/></g>
<text x="600" y="175" font-family="Arial, sans-serif" font-size="16" fill="#FFFFFF" text-anchor="middle">earnings</text>
<g transform="translate(720,40) scale(1.6)"><rect x="12" y="20" width="38" height="24" rx="4" stroke="#FFFFFF" stroke-width="4" stroke-linecap="round" stroke-linejoin="round" fill="none"/>
  <path d="M12 26 H50" stroke="#FFFFFF" stroke-width="4" stroke-linecap="round" stroke-linejoin="round" fill="none"/>
  <path d="M40 32 H46" stroke="#FFFFFF" stroke-width="4" stroke-linecap="round" stroke-linejoin="round" fill="none"/>
  <path d="M26 14 H38 L52 14" stroke="#FFFFFF" stroke-width="4" stroke-linecap="round" stroke-linejoin="round" fill="none"/>
  <path d="M44 6 L52 14 L44 22" stroke="#FFFFFF" stroke-width="4" stroke-linecap="round" stroke-linejoin="round" fill="none"/></g>
<text x="770" y="175" font-family="Arial, sans-serif" font-size="16" fill="#FFFFFF" text-anchor="middle">payouts</text>
<g transform="translate(40,260) scale(1.6)"><path d="M14 18 H34 L42 26 V46 H14 Z" stroke="#FFFFFF" stroke-width="4" stroke-linecap="round" stroke-linejoin="round" fill="none"/>
  <path d="M34 18 V26 H42" stroke="#FFFFFF" stroke-width="4" stroke-linecap="round" stroke-linejoin="round" fill="none"/>
  <path d="M20 32 H34" stroke="#FFFFFF" stroke-width="4" stroke-linecap="round" stroke-linejoin="round" fill="none"/>
  <path d="M20 38 H34" stroke="#FFFFFF" stroke-width="4" stroke-linecap="round" stroke-linejoin="round" fill="none"/>
  <path d="M20 44 H30" stroke="#FFFFFF" stroke-width="4" stroke-linecap="round" stroke-linejoin="round" fill="none"/>
  <path d="M50 34 C50 42,44 48,38 50 C32 48,26 42,26 34 V26 L38 22 L50 26 Z" stroke="#FFFFFF" stroke-width="4" stroke-linecap="round" stroke-linejoin="round" fill="none"/>
  <path d="M33 37 L37 41 L44 33" stroke="#FFFFFF" stroke-width="4" stroke-linecap="round" stroke-linejoin="round" fill="none"/></g>
<text x="90" y="395" font-family="Arial, sans-serif" font-size="16" fill="#FFFFFF" text-anchor="middle">kyc_documents</text>
<g transform="translate(210,260) scale(1.6)"><path d="M16 12 H38 L48 22 V52 H16 Z" stroke="#FFFFFF" stroke-width="4" stroke-linecap="round" stroke-linejoin="round" fill="none"/>
  <path d="M38 12 V22 H48" stroke="#FFFFFF" stroke-width="4" stroke-linecap="round" stroke-linejoin="round" fill="none"/>
  <path d="M24 42 H40" stroke="#FFFFFF" stroke-width="4" stroke-linecap="round" stroke-linejoin="round" fill="none"/>
  <path d="M24 48 H36" stroke="#FFFFFF" stroke-width="4" stroke-linecap="round" stroke-linejoin="round" fill="none"/>
  <path d="M22 34 H42" stroke="#FFFFFF" stroke-width="4" stroke-linecap="round" stroke-linejoin="round" fill="none"/>
  <rect x="22" y="24" width="4" height="8" rx="1" stroke="#FFFFFF" stroke-width="4" stroke-linecap="round" stroke-linejoin="round" fill="none"/>
  <rect x="30" y="20" width="4" height="12" rx="1" stroke="#FFFFFF" stroke-width="4" stroke-linecap="round" stroke-linejoin="round" fill="none"/>
  <rect x="38" y="16" width="4" height="16" rx="1" stroke="#FFFFFF" stroke-width="4" stroke-linecap="round" stroke-linejoin="round" fill="none"/></g>
<text x="260" y="395" font-family="Arial, sans-serif" font-size="16" fill="#FFFFFF" text-anchor="middle">project_reports</text>
<g transform="translate(380,260) scale(1.6)"><circle cx="32" cy="32" r="8" stroke="#FFFFFF" stroke-width="4" stroke-linecap="round" stroke-linejoin="round" fill="none"/>
  <path d="M32 12 V18" stroke="#FFFFFF" stroke-width="4" stroke-linecap="round" stroke-linejoin="round" fill="none"/>
  <path d="M32 46 V52" stroke="#FFFFFF" stroke-width="4" stroke-linecap="round" stroke-linejoin="round" fill="none"/>
  <path d="M12 32 H18" stroke="#FFFFFF" stroke-width="4" stroke-linecap="round" stroke-linejoin="round" fill="none"/>
  <path d="M46 32 H52" stroke="#FFFFFF" stroke-width="4" stroke-linecap="round" stroke-linejoin="round" fill="none"/>
  <path d="M18 18 L22 22" stroke="#FFFFFF" stroke-width="4" stroke-linecap="round" stroke-linejoin="round" fill="none"/>
  <path d="M42 42 L46 46" stroke="#FFFFFF" stroke-width="4" stroke-linecap="round" stroke-linejoin="round" fill="none"/>
  <path d="M18 46 L22 42" stroke="#FFFFFF" stroke-width="4" stroke-linecap="round" stroke-linejoin="round" fill="none"/>
  <path d="M42 22 L46 18" stroke="#FFFFFF" stroke-width="4" stroke-linecap="round" stroke-linejoin="round" fill="none"/>
  <circle cx="32" cy="32" r="18" stroke="#FFFFFF" stroke-width="4" stroke-linecap="round" stroke-linejoin="round" fill="none"/></g>
<text x="430" y="395" font-family="Arial, sans-serif" font-size="16" fill="#FFFFFF" text-anchor="middle">settings</text>
<g transform="translate(550,260) scale(1.6)"><path d="M18 26 L24 20 C27 17 31 17 34 20 L38 24" stroke="#FFFFFF" stroke-width="4" stroke-linecap="round" stroke-linejoin="round" fill="none"/>
  <path d="M46 26 L40 20 C37 17 33 17 30 20 L26 24" stroke="#FFFFFF" stroke-width="4" stroke-linecap="round" stroke-linejoin="round" fill="none"/>
  <path d="M14 22 L22 30" stroke="#FFFFFF" stroke-width="4" stroke-linecap="round" stroke-linejoin="round" fill="none"/>
  <path d="M50 22 L42 30" stroke="#FFFFFF" stroke-width="4" stroke-linecap="round" stroke-linejoin="round" fill="none"/>
  <path d="M22 30 L28 36" stroke="#FFFFFF" stroke-width="4" stroke-linecap="round" stroke-linejoin="round" fill="none"/>
  <path d="M42 30 L36 36" stroke="#FFFFFF" stroke-width="4" stroke-linecap="round" stroke-linejoin="round" fill="none"/>
  <path d="M28 36 L32 40 L36 36" stroke="#FFFFFF" stroke-width="4" stroke-linecap="round" stroke-linejoin="round" fill="none"/>
  <path d="M8 20 L16 28 L24 20" stroke="#FFFFFF" stroke-width="4" stroke-linecap="round" stroke-linejoin="round" fill="none"/>
  <path d="M56 20 L48 28 L40 20" stroke="#FFFFFF" stroke-width="4" stroke-linecap="round" stroke-linejoin="round" fill="none"/></g>
<text x="600" y="395" font-family="Arial, sans-serif" font-size="16" fill="#FFFFFF" text-anchor="middle">affiliate</text>
<g transform="translate(720,260) scale(1.6)"><path d="M12 16 H44 C49 16 52 19 52 24 V32 C52 37 49 40 44 40 H30 L20 48 V40 H20 C15 40 12 37 12 32 Z" stroke="#FFFFFF" stroke-width="4" stroke-linecap="round" stroke-linejoin="round" fill="none"/>
  <circle cx="24" cy="28" r="1.5" stroke="#FFFFFF" stroke-width="4" fill="#FFFFFF"/>
  <circle cx="32" cy="28" r="1.5" stroke="#FFFFFF" stroke-width="4" fill="#FFFFFF"/>
  <circle cx="40" cy="28" r="1.5" stroke="#FFFFFF" stroke-width="4" fill="#FFFFFF"/>
  <circle cx="50" cy="44" r="10" stroke="#FFFFFF" stroke-width="4" stroke-linecap="round" stroke-linejoin="round" fill="none"/>
  <path d="M50 39 V46" stroke="#FFFFFF" stroke-width="4" stroke-linecap="round" stroke-linejoin="round" fill="none"/>
  <path d="M50 50 H50.2" stroke="#FFFFFF" stroke-width="4" stroke-linecap="round" stroke-linejoin="round" fill="none"/></g>
<text x="770" y="395" font-family="Arial, sans-serif" font-size="16" fill="#FFFFFF" text-anchor="middle">messages_support</text>
</svg>